<?xml version="1.0" encoding="UTF-8"?><svg id="Ebene_1" xmlns="http://www.w3.org/2000/svg" viewBox="0 0 152 78"><defs><style>.cls-1{fill:#ee7c00;}</style></defs><path class="cls-1" d="m4.5,64.31h5.07c1,0,1.75.05,2.25.13.49.09.93.28,1.32.56.39.28.71.65.97,1.12.26.47.39.99.39,1.58,0,.63-.16,1.21-.48,1.73-.32.52-.75.92-1.3,1.18.77.24,1.37.65,1.78,1.22.42.57.62,1.25.62,2.03,0,.61-.13,1.21-.4,1.78-.27.58-.63,1.04-1.1,1.39-.47.35-1.04.56-1.72.64-.43.05-1.46.08-3.09.09h-4.32v-13.45Zm2.56,2.24v3.11h1.68c1,0,1.62-.01,1.86-.05.44-.05.79-.22,1.03-.48.25-.26.38-.62.38-1.05s-.11-.76-.32-1.01c-.22-.26-.54-.42-.97-.47-.25-.03-.98-.05-2.19-.05h-1.47Zm0,5.35v3.6h2.37c.92,0,1.51-.03,1.76-.08.38-.07.69-.25.93-.54.24-.28.36-.66.36-1.14,0-.4-.09-.75-.28-1.03-.19-.28-.45-.49-.8-.61-.35-.13-1.11-.19-2.27-.19h-2.07Zm21.67,5.86h-2.79l-1.11-3.06h-5.07l-1.05,3.06h-2.72l4.94-13.45h2.71l5.08,13.45Zm-4.72-5.32l-1.75-4.99-1.71,4.99h3.46Zm6.06-8.13h2.56v7.28c0,1.16.03,1.91.1,2.25.11.55.37.99.78,1.32.41.33.98.5,1.69.5s1.27-.16,1.64-.47c.37-.32.59-.7.67-1.16.07-.46.11-1.22.11-2.29v-7.44h2.56v7.06c0,1.62-.07,2.75-.21,3.42-.14.66-.39,1.23-.76,1.69-.37.45-.87.82-1.49,1.09-.62.27-1.44.41-2.44.41-1.21,0-2.13-.15-2.76-.45-.63-.3-1.12-.68-1.48-1.16-.37-.47-.6-.97-.72-1.49-.17-.77-.25-1.91-.25-3.41v-7.17Zm12.78,13.45v-13.45h3.83l2.3,9.17,2.28-9.17h3.84v13.45h-2.38v-10.59l-2.52,10.59h-2.47l-2.51-10.59v10.59h-2.38Zm26.24,0h-2.79l-1.11-3.06h-5.07l-1.05,3.06h-2.72l4.94-13.45h2.71l5.08,13.45Zm-4.72-5.32l-1.75-4.99-1.71,4.99h3.46Zm5.43.94l2.49-.25c.15.89.45,1.54.91,1.95.46.41,1.08.62,1.86.62.82,0,1.45-.19,1.87-.55.42-.37.63-.8.63-1.3,0-.32-.09-.59-.26-.81-.18-.22-.48-.42-.92-.58-.3-.11-.98-.31-2.05-.59-1.37-.36-2.34-.81-2.89-1.34-.78-.74-1.17-1.64-1.17-2.7,0-.69.18-1.32.55-1.92.37-.6.89-1.05,1.58-1.36.69-.31,1.52-.47,2.5-.47,1.59,0,2.79.37,3.6,1.11.8.74,1.23,1.73,1.27,2.97l-2.56.12c-.11-.69-.34-1.19-.7-1.49-.36-.3-.9-.45-1.62-.45s-1.33.16-1.75.49c-.27.21-.41.48-.41.83,0,.32.13.59.38.82.32.29,1.11.59,2.36.9,1.25.31,2.17.64,2.77.97.6.33,1.06.79,1.4,1.37.34.58.51,1.29.51,2.14,0,.77-.2,1.49-.61,2.17-.4.67-.98,1.17-1.71,1.5-.74.32-1.66.49-2.76.49-1.6,0-2.83-.39-3.69-1.18-.86-.78-1.37-1.93-1.54-3.44Zm20.58-.57l2.48.84c-.38,1.47-1.01,2.56-1.9,3.27-.89.71-2.01,1.07-3.37,1.07-1.68,0-3.07-.61-4.15-1.83-1.08-1.22-1.63-2.89-1.63-5,0-2.24.55-3.98,1.64-5.22,1.09-1.24,2.52-1.86,4.3-1.86,1.55,0,2.81.49,3.78,1.46.58.57,1.01,1.4,1.3,2.47l-2.53.64c-.15-.7-.46-1.25-.94-1.65-.48-.4-1.05-.61-1.74-.61-.94,0-1.7.36-2.29,1.07-.59.72-.88,1.87-.88,3.48,0,1.7.29,2.91.86,3.63.58.72,1.33,1.08,2.25,1.08.68,0,1.27-.23,1.76-.69.49-.46.84-1.18,1.05-2.16Zm4.69,4.94v-13.45h2.56v5.29h5.02v-5.29h2.56v13.45h-2.56v-5.88h-5.02v5.88h-2.56Zm12.72,0v-13.45h2.56v13.45h-2.56Zm5.03,0v-13.45h2.49l5.19,8.98v-8.98h2.38v13.45h-2.57l-5.12-8.77v8.77h-2.38Zm12.77,0v-13.45h9.41v2.28h-6.84v2.98h6.37v2.27h-6.37v3.66h7.09v2.27h-9.65Zm11.85,0v-13.45h2.49l5.19,8.98v-8.98h2.38v13.45h-2.57l-5.11-8.77v8.77h-2.38Zm-47.93-47.06h-14.79v6.29h-2.61v-6.29h-14.79v-2.6h14.79v-6.29h2.61v6.29h14.79v2.6Zm21.18-22.34h-15.66v43.37h15.66V8.36Zm3.91,21.68l29.55-21.68h-30.86v43.37h30.86l-29.55-21.69ZM23.51,8.36H7.85v43.37h15.66V8.36Zm18.11,0h-16.32v20.38h16.32c5.64,0,10.21-4.56,10.21-10.19s-4.57-10.19-10.21-10.19Zm.81,21.98h-17.12v21.39h17.12c5.92,0,10.71-4.79,10.71-10.7s-4.8-10.7-10.71-10.7Zm97.32,29.82H12.26c-6.76,0-12.26-5.49-12.26-12.23V12.23C0,5.49,5.5,0,12.26,0h127.48c6.76,0,12.26,5.49,12.26,12.23v35.71c0,6.74-5.5,12.23-12.26,12.23ZM12.26,2.48C6.87,2.48,2.49,6.85,2.49,12.23v35.71c0,5.38,4.38,9.75,9.77,9.75h127.48c5.38,0,9.77-4.37,9.77-9.75V12.23c0-5.38-4.39-9.75-9.77-9.75H12.26Z"/></svg>