<svg xmlns="http://www.w3.org/2000/svg" xmlns:xlink="http://www.w3.org/1999/xlink" id="Ebene_1" x="0px" y="0px" viewBox="0 0 208 52" style="enable-background:new 0 0 208 52;" xml:space="preserve"><style type="text/css">	.st0{fill:#005FAB;}	.st1{fill:#FFDC01;}</style><g>	<g>		<g>			<path class="st0" d="M0.8,2.3h11.9c0,0,0,31.7,0,32C12.6,37.1,14,38,16,38.2c0.6,0,10.8,0.1,10.8,0.1v11.4H16.2    c-0.5,0-1.1,0-1.6-0.1c-2.1-0.2-7.2-0.9-9.3-3.2c-4.6-4-4.5-10.3-4.5-10.3L0.8,2.3z"></path>		</g>		<polygon class="st0" points="57.7,22.6 71.7,22.6 71.6,29.7 57.7,29.6   "></polygon>		<path class="st0" d="M109.4,25.4c0.2,16.1,14.1,24.9,24.2,24.2c7.3,0.1,14.1-3.5,18.4-9l-8.5-8.5c-2.1,3.3-5.6,5.9-9.7,5.6   c-7.9-0.4-12.7-6.1-12.7-12.4c0-4,1.9-8,5.3-10.3l-8.7-8.7C110.8,12.2,109.2,21.5,109.4,25.4"></path>		<polygon class="st1" points="155.7,2.3 129.5,2.3 138.4,11.1 130.4,19 139,27.5 146.9,19.6 155.7,28.4   "></polygon>		<path class="st0" d="M194,18.1c0-8.5-4.9-12.5-8.8-14.4c-2.1-1-4.5-1.5-6.8-1.5h-16.4v47.4h11.4v-38h4.8c1.5,0,3,0.6,4,1.7   c0.8,0.9,1.5,2.2,1.5,4.2c0.2,5.6-4.6,6.6-7,6.8v10C181.2,34.1,194.7,32.4,194,18.1z"></path>		<path class="st0" d="M50.9,38.1c-5.4-0.2-10.1-4-11.2-9.3c-0.2-1-0.3-2.1-0.3-3.2c0.1-5.3,3-10.3,8-11.7c0.9-0.2,1.7-0.3,2.6-0.3   c1.4,0,7.7,0,7.7,0L70.6,2.3H48c-0.6,0-1.2,0-1.7,0.1C43.3,2.9,35,5.1,30.4,13.7c-8,15.1,0.1,30.3,11,34.7   c2.5,1.6,16.3,1.3,16.3,1.3V38.2C57.7,38.2,53.3,38.2,50.9,38.1z"></path>		<g>			<polygon class="st0" points="70.6,2.3 70.6,2.3 67.5,5    "></polygon>			<polygon class="st0" points="106.7,13.6 106.6,2.3 77,2.3 64,13.6 84.1,13.6 84.1,49.7 96,49.7 95.9,13.6    "></polygon>		</g>	</g>	<g>		<path class="st0" d="M202.4,2.3c-2.7,0-4.8,2.2-4.8,4.8c0,2.6,2.2,4.8,4.8,4.8c2.6,0,4.8-2.2,4.8-4.8   C207.2,4.5,205.1,2.3,202.4,2.3z M202.4,10.9c-2.1,0-3.7-1.7-3.7-3.8c0-2.1,1.7-3.8,3.8-3.8s3.7,1.8,3.7,3.8   C206.2,9.2,204.5,10.9,202.4,10.9z"></path>		<path class="st0" d="M200.4,4.3v5.3h1.3V7.6h0.5c0.8,0,0.9,0.5,0.9,0.8c0,0.2,0.1,1.1,0.2,1.3h1.3c-0.1-0.3-0.1-0.4-0.2-1.3   c-0.1-0.8-0.4-1.1-0.8-1.2c0.7-0.3,0.9-0.9,0.9-1.3c0-1.1-0.9-1.5-1.9-1.5L200.4,4.3L200.4,4.3z M202.4,5.2c0.3,0,0.8,0,0.8,0.7   c0,0.8-0.6,0.8-0.9,0.8h-0.6V5.2C201.7,5.2,202.4,5.2,202.4,5.2z"></path>	</g></g></svg>